<svg id="Layer_1" data-name="Layer 1" xmlns="http://www.w3.org/2000/svg" viewBox="0 0 3625.82 3010.19"><defs><style>.cls-1,.cls-2,.cls-6{fill:#fff;}.cls-2{font-size:1296px;letter-spacing:-0.02em;}.cls-2,.cls-6{font-family:Nura-SemiBold, Nura;font-weight:600;}.cls-3{letter-spacing:-0.04em;}.cls-4{letter-spacing:-0.07em;}.cls-5{letter-spacing:-0.02em;}.cls-6{font-size:223px;letter-spacing:-0.02em;}</style></defs><path class="cls-1" d="M133.23,1490H334.58l32.57,71h79.06L273.56,1183H194.33L21.67,1561H100.4Zm100.84-227.49,71.41,160.84h-143ZM950.87,1561,778.12,1183H699.06L526.49,1561H605L638,1490H839.15l32.57,71ZM667.29,1423.3l71.26-160.84,71.51,160.84Zm1038.33-1034c-35.68.48-35.68.48-41-12.38,55.74-65.61,189.64-106.56,230.91-80.69-6,7.27-11.87,14.44-19.75,23.94,17.64,4,32.26,7.42,48.75,11.18-.07,9.41-.07,16-.4,23.07,9.25,3.27,18,6.31,26.74,9.42.48,2.15,1,4.15,1.53,6.06-9.43,2.79-18.76,7.83-27.94,7.66-66-.64-120.34,24.19-166.25,69-5.93,5.66-12.84,10.54-25.42,20.51-.73-17.4-1.56-29.37-2.29-41.82-28.76-1.52-28.76-1.52-24.85-35.92M2959.32,469c-4.47.72-8.94,1.59-14.87,2.48,5,6.7,9.27,12.6,13.91,18.91-3.1,3.43-5.37,5.82-7.56,8.07,2.19,4.07,4.46,7.81,6.5,11.57-.41.88-1,1.92-1.31,2.79-4-2.15-9.19-3.11-12.51-6.13-23-20.44-50.29-28.27-80.92-26.59-3.91.47-7.89-.17-15.53-.4,5.38-6.32,8.86-10.94,12.52-15.64-9.76-9.34-9.76-9.34,2.6-20.29-12.84-10.92-12.84-10.92-10.65-17,40.79-6.15,101.16,20.44,107.82,42.23m469.4,415.87c7.46-3.76,12.58-6.3,17.94-9.1-5.1-12.69-5.1-12.69,10.66-17.71-7.23-15-7.23-15-2.68-19.8,39.81,10.61,84.17,59.06,81.09,81.65-4.4-1.11-9-2.15-14.46-3.75,1.62,8.15,3.15,15.09,4.95,22.68-4.22,2-7.39,3.26-10.23,4.62.23,4.39.72,8.7,1.28,13.09-1.05.65-1.7,1.27-2.58,1.91-3.1-3.51-6.92-6.53-8.94-10.61-12.6-27.86-34.29-45.73-62.91-56.28-3.8-1.27-7.14-3.27-14.12-6.7m-198,166.59c0-210.65-173.63-381.31-388-381.31-214.59,0-388.46,170.66-388.46,381.31S2628.06,1433,2842.65,1433c214.42,0,388-170.9,388-381.63M2566,929.68c-1.88,3.67-3.66,7.42-5.44,11.09-3.1,7.6-6.83,14.85-9.51,22.28-6.17,14.76-10.82,29.53-15.12,43.5-4.14,14.13-7.72,27.62-10.32,40.08-5.6,25.06-8.44,46.6-10.48,61.7-.8,7.74-1.71,13.64-1.78,17.8-.56,4-.82,6.15-.82,6.15s-3.57-8.31-7.16-23.72a201.38,201.38,0,0,1-5.1-27.46c-1.06-5.41-1.47-11.09-2.12-17.24-.24-6.06-.74-12.45-.74-19.15-.47-13.33.5-27.86,1.8-43.18,2.28-15.49,4.88-31.61,9.75-48.14a294.85,294.85,0,0,1,18.69-50.13c4.14-8.38,8.28-16.76,13.41-25,4.53-8.22,10.24-16.28,15.75-24,2.84-4.07,6-7.82,9.11-11.89,3.08-3.51,6.18-7.58,9.34-11.09,3.26-3.76,6.9-7.43,10.15-10.94A131.29,131.29,0,0,1,2596.13,810c7.48-6.85,14.62-13.64,22.6-19.47,3.89-2.95,7.94-6.15,11.52-9,3.9-3,8.37-5.58,12.6-8.31,4.07-2.54,8-5.09,12-7.81,4.15-2.32,8.2-4.55,12.6-6.94,4-2.17,8.2-4.39,12.27-6.55,3.9-2,8.54-4.08,12.59-5.91s8.21-3.58,12.2-5.43,8.35-3.43,12.17-4.7c8.13-2.88,15.92-5.51,23.65-8.15,7.56-2.15,15-4.3,22.18-6.22,3.42-.88,6.75-1.84,10.08-2.72,3.57-.64,6.65-1.27,10-1.91,6.42-1.28,12.35-2.24,18-3.28,2.76-.48,5.52-.87,7.88-1.27a64.06,64.06,0,0,1,7.39-.88c9.35-1.12,16.82-1.76,21.46-2.15,5.1-.32,7.72-.65,7.72-.65s-2.36,1-6.83,3c-4.47,1.75-11.06,4.54-19.33,7.65-8.55,2.88-18.13,7.82-29.42,12.46-2.93,1.27-5.77,2.31-8.61,3.58-3.1,1.44-5.86,2.87-8.93,4.4-6.19,3-12.35,5.91-19,9C2740,755.92,2726,763.09,2712.48,772c-3.49,2.16-7.07,4-10.47,6.55-3.26,2.39-6.84,4.63-10.17,6.94-3.33,2.49-7.07,4.88-10.55,7.43-3.18,2.47-6.67,5.27-10,7.82-3.34,2.71-6.75,5.27-10,8.14s-6.42,5.67-9.74,8.7c-6.67,5.44-12.52,11.89-18.69,17.88a123.11,123.11,0,0,0-9,9.5c-2.76,3.28-5.84,6.55-8.85,9.82L2607.1,865c-2.77,3.29-5.53,6.72-8.13,10.38-4.88,7-10,13.82-14.38,21.24-2,3.59-4.47,7.18-6.66,10.77-2,3.75-4.07,7.43-6.19,11.17-2.1,3.52-3.8,7.36-5.75,11.1m223.28-130.51c-3.35,2.16-7,4-10.49,6.55-3.33,2.39-6.66,4.63-10,6.94-3.58,2.47-7.14,4.87-10.57,7.42-3.32,2.79-6.66,5.28-10,7.83-3.41,2.72-6.91,5.27-10.08,8.14-3.32,2.8-6.58,5.67-9.73,8.47-6.69,5.66-12.44,12.13-18.86,18.11a95.1,95.1,0,0,0-8.78,9.49c-2.93,3.28-5.84,6.55-8.94,9.66l-8.2,10.23c-2.61,3.51-5.37,7-7.56,10.61a245.06,245.06,0,0,0-14.55,21.24c-2,3.59-4.55,7.18-6.66,10.77-2,3.76-4.23,7.42-6.25,11.18a109.88,109.88,0,0,0-5.77,11.09c-1.78,3.68-3.82,7.42-5.36,10.93-3.34,7.75-6.82,15-9.76,22.44-6.09,14.77-10.8,29.53-15.19,43.51-3.82,14.12-7.56,27.53-10,40.06-5.6,25.06-8.53,46.62-10.65,61.7-.73,7.67-1.63,13.49-1.87,17.81-.32,4-.56,6.14-.56,6.14a199.62,199.62,0,0,1-7.32-23.46,216.29,216.29,0,0,1-5.2-27.7c-1-5.43-1.3-11.1-1.78-17.25-.33-5.9-1.06-12.45-1.22-19-.32-13.49.65-28,2.19-43.34,2-15.49,4.63-31.53,9.51-48.14a300.46,300.46,0,0,1,18.86-50c4.21-8.46,8-16.85,13.48-24.82,4.63-8.47,10.07-16.21,15.83-24.35,2.61-4,5.93-7.74,9-11.57s6.17-7.83,9.26-11.34c3.58-3.67,6.66-7.42,10.24-10.93A91.68,91.68,0,0,1,2673,837.17c7.31-6.79,14.38-13.57,22.67-19.4,3.9-3,7.56-6.15,11.45-8.94a124.23,124.23,0,0,1,12.43-8.14c4.08-2.55,8.21-5.58,12-8.07,4.15-2.3,8.45-4.69,12.6-6.94,4.39-2.15,8.21-4.38,12.27-6.54s8.53-4.07,12.76-5.92c4.22-1.66,8-3.58,12.27-5.34a107.46,107.46,0,0,1,12.18-4.79c8.22-2.86,15.92-5.66,23.32-8.13,8-2.17,15.29-4.32,22.35-6.23,3.33-.89,6.82-1.84,10.14-2.72,3.34-.64,6.75-1.27,10.09-1.92,6.18-1.26,12.19-2.23,17.7-3.26,2.86-.49,5.45-.89,8-1.36a69.3,69.3,0,0,0,7.47-.8c9.18-1.11,16.66-1.52,21.37-2.15,5.12-.33,7.56-.64,7.56-.64s-2.28,1-6.67,3c-4.56,1.75-11,4.63-19.49,7.66-8.22,2.87-18.22,7.83-29.18,12.38-2.84,1.36-5.85,2.39-8.78,3.58-2.84,1.53-5.6,3-8.68,4.48-6.18,3-12.45,5.9-19.11,9.34-12.75,6.86-26.79,14.05-40.45,22.9M3055.05,80.62c-17.81-16.76-18.7-38.8-2.61-56.84C3065,9.57,3078.76-2.88,3099.65,3.35c8.61,2.55,17.22,8.22,24.13,14.37,32.34,29.14,63.86,59.14,96,88.2,3.09,2.94,8.61,5.19,12.75,4.55,24-3.91,44.45,7.83,53.06,30.64a22.83,22.83,0,0,0,9.91,10.95c14.23,6.94,24,17.47,28.2,32.49,1.63,6.3,3.41,9.74,10.48,11.25,18.12,3.75,28.12,16.21,34.77,32.25,1.55,4.15,6.26,8.77,10.16,9.41,17.79,3.84,27.79,15.25,35,30.66a27.26,27.26,0,0,0,10.72,11.33c14.38,8.3,25.43,18.36,28.51,35.53.5,4.79,3.42,9.81,7.16,13.24,16.66,16.21,34.36,31.37,50.78,47.58,14.62,13.73,17.47,31.92,9.26,47.17-12.84,22.91-33.64,35.36-53.62,30.49-6.84-1.68-13.58-5.82-19.27-10.45-18.44-16.12-35.9-32.8-54.36-49.65-31.84,24.27-61.65,15.88-75.39-19.79a16.1,16.1,0,0,0-7-7.44c-15.45-6.7-25.6-17.55-31-33.28-1.23-3.43-5.44-7.42-8.78-8.06-21.11-4.15-32-17.47-37.7-36.87-1-3.19-5.37-6.95-8.7-7.59-17.95-4.71-28.12-16.68-35.67-32-2-4.31-5.76-8.94-10-10.86-23.3-10.53-33.06-32.25-25.66-56.66,1.3-3.68-1.63-10.23-4.88-12.85-30.79-29.63-62.33-58.52-93.59-87.33M2224.24,394c-12-14.77-22.34-29.94-12.43-49.17,4.06-7.91,11.12-15.41,18.37-20.76,34.6-26.66,69.87-52.21,104.73-78.53,3.33-2.4,6.66-7.43,6.66-11.19.16-24.1,15.51-42,39.89-46.61a24.29,24.29,0,0,0,12.59-7.35c9.35-12.93,21.78-20.75,37.46-22,6.43-.4,10.24-1.91,12.85-8.46,6.66-16.84,20.95-24.43,38.43-27.94,4.21-.87,9.58-4.7,11.05-8.3,6.9-16.68,19.74-24.5,36.8-28.89a27.39,27.39,0,0,0,12.92-8.45c10.8-12.46,22.82-21.25,40.55-21.25,4.86,0,10.39-2.15,14.47-4.79,19.17-13.65,37.45-27.85,56.29-41.5,16.18-11.58,35-11.58,48.75-.72,21.06,16.19,30,38.55,21.54,56.91a48.33,48.33,0,0,1-13.56,16.92c-19.27,15.09-39,29.22-59,44.22,18.85,34.72,5.37,62.5-32.59,69.76-3.32.65-6.9,2.8-8.44,5.6-9.5,13.73-22.1,21.63-38.85,24.18-3.49.64-8.35,4-9.66,7.19-7.72,19.64-22.84,28.09-43.06,30.33-3.58.48-8,3.91-9.26,7.18-7.8,16.53-21.3,24.35-38.18,29.14-4.64,1.11-9.94,4.22-12.36,7.83-14.71,20.9-37.95,26.56-61.44,15.24-3.4-1.75-10.39,0-13.8,2.47-34.62,24.82-69,50.44-103.44,76-19.58,14.45-41.92,11.57-57.28-7m-756.3-179.45c-10.14-30.88,6.26-91.31,46.33-111.9,46.39-23.55,90.75-51,138-72.08,30.4-13.41,64.29-21.24,97.27-26.9,22.51-3.91,42.58,5.11,56.87,26.58,56.72,83.65,116,165.62,171.37,250.08,39.24,59.47,73.37,122.28,111.05,182.8,27,43.09,56.73,84.21,83.62,126.91,47,73.67,92.71,148,139.27,222,32.33,51.5,65.33,102.9,97.26,154.86A50.66,50.66,0,0,1,2413,975a444.12,444.12,0,0,0-7,44.38c-.65-1.51-1.71-2.87-2.36-4.3-34.19-53.25-68.57-106.73-102.7-160-30.06-47.25-59.64-94.89-89.78-142C2155.49,626,2099.6,539.35,2043.94,452.18c-39.24-61.37-78-123-117-184.3q-45.24-70.87-90-141.92c-11.3-18-20.23-38-33.08-54.92C1777,36.56,1751.52,31,1712,48.76,1677.9,64.33,1643.78,80.38,1609.57,96c-35.83,16.6-49.65,38.15-46.72,76.07.89,15.65,5.05,31,5.05,46.38,0,10-2.44,22.18-8.55,29.22-10.32,11.57-14.86,16.75-2.52,32.24,41.78,51.8,79.8,106.24,120.18,159.25,43.47,57.08,88.24,113.27,131.71,170.33,26.64,35.29,51.52,71.69,78.25,106.73,30.39,39.68,62.56,77.91,93.1,117.34,31.79,40.94,63,82,94.58,123.16,37.78,49.17,75.48,98,113.44,147,26.41,34.16,53.86,67.68,80.27,101.84,2.84,3.76,3.34,9.34,4.88,14-2.36,1.27-4.8,2.63-7.15,3.91-10.73-13.25-20.81-26.51-31.7-39.43-38.6-46-78-91.24-116.17-137.45-52.74-63.86-104.59-128.67-157.64-192.38C1919,804,1874.6,755.6,1833.1,704.9c-36.73-44.31-70.69-90.67-106.2-136.09q-46.44-59.14-93.12-117.67c-40.53-51.4-82.06-102.33-121-154.92-18.29-25.23-35.27-52.84-44.87-81.67M2758.63,637a32.48,32.48,0,0,1,.15-7.81c8.47-77.35,17.4-154.77,27.56-232.21,3.49-25.94,9.67-51.65,15.27-77.42,5.12-22.68,41.45-43.6,65.42-38.24,40.29,9.1,80.75,17.4,121.55,21.55,40.31,4.31,65.56,46.93,58.74,80.69-7.65,37.53-14.64,75.2-20.47,113.35-7,44.38-11.54,89.09-18.53,133.56a107.59,107.59,0,0,1-6.75,23c-8.85-3.19-17.87-5.83-26.81-8.47,11.54-64.89,23.48-129.94,33.32-195.08,4.79-30.09,5.12-60.66,7.47-91.08,1.86-23.14-17.31-33.51-32.17-42.45-33.48-20-86.86-7.19-109.21,23.22a228.67,228.67,0,0,1-51,51.48c-11.79,8.87-11.54,35-14.47,53.57-2,12.45.49,25.61-.65,38.47-4.38,46.69-8.61,93.56-14.86,140.17a79.72,79.72,0,0,1-1.31,8.21c-11.29,1.53-22.34,3.11-33.23,5.51m88.4,869c1.15,0,2.28.23,3.34.23a451.62,451.62,0,0,0,54.6-3.44,59.44,59.44,0,0,1-2.68,5.36c-8.86,14.68-19.9,28.41-29.66,42.78-9.18,13.65-18.2,27.85-27.37,42-14.8-1.51-16.82-9.1-13.11-22.43,5.62-21.3,10.91-42.86,14.88-64.48m746.38-569.79c-34.36,37.52-68.82,75.12-102.86,113.2q-55,61.9-108.88,124.28c-39.33,45.9-77.36,92.91-117.09,138.25-33.31,38.16-69.22,73.92-102.62,112.22-29.73,33.53-57.43,68.74-86,103.38-2-.88-4-1.52-6-2.39.89-5.19.24-12,3.09-15.49,28.76-34.72,57.93-68.73,86.94-102.81,44.12-52.6,87.83-105,132.2-157.4,48.74-57.56,97.9-115.28,147.38-172.51,35.91-41.81,73.13-82.61,108.79-124.59,20.25-24,38.93-49.65,57.94-75.12,3.09-4.23,4.39-11.82,2.84-16.84-17.21-56.6-60.21-80.63-118.13-60.11-14.71,5.18-31.69,6.94-44,15.49-15.2,10.45-27,25.62-38.75,39.66C3369,902.39,3329.58,949,3291.8,996.57a401.48,401.48,0,0,0-9.26-42.3c10-12.86,20.16-25.94,30-39,37.22-49.17,72.9-99.45,112-146.78,20.56-25.07,48.92-39.76,83.78-26,4.62,1.51,9.5,2.79,12.82,5.41a411.72,411.72,0,0,0,67.36,51.33c51.44,31.46,46.57,92.2,5,137.05M1028.45,1378c0-106.31,67.61-204.58,203.39-204.58a204.51,204.51,0,0,1,142.83,57.79l-45.08,45.1c-25.68-24-64.12-37.75-97.75-37.75-82.48,0-132.61,61.62-132.61,139.44,0,62.27,37,126.37,132.61,126.37,30.14,0,56.71-6.39,86.86-30.27v-66.72h-98.41v-64h165V1502.8c-37.94,42.62-85.64,67.93-153.4,67.93-144.63,0-203.39-93.46-203.39-192.77m700.48-195.57c-60.69,0-121.06.65-181.6.65v378h72.56V1449.89h109c188.43,0,187.85-267.5,0-267.5m0,202.12h-109V1250.57h109c92.22,0,92.72,133.94,0,133.94M2054.42,1183v312.27h197.77V1561H1982V1183Z"/><path class="cls-1" d="M70,2965.35q-41.08,0-70-22.61L16.91,2919q21.83,17.52,53.05,17.51,16.42,0,26.06-5.64t9.62-15.35q0-9.2-8.92-14.3t-28.4-7.36q-33.58-3.91-48.95-15.59T4,2845q0-21.18,18.2-34.59T69.49,2797q34.74,0,61.5,19.37L115,2839a74.69,74.69,0,0,0-44.6-14.53q-15.27,0-24.89,5.63t-9.62,14.42c0,5.84,2.82,10.47,8.45,13.84s14.86,5.84,27.7,7.39q34.28,4.62,50.12,16.49T138,2915.07q0,22.62-18.66,36.46T70,2965.35"/><polygon class="cls-1" points="479.59 2934 572.55 2934 572.55 2961.9 447.66 2961.9 447.66 2800.46 570.44 2800.46 570.44 2828.12 479.59 2828.12 479.59 2866.64 566.22 2866.64 566.22 2893.63 479.59 2893.63 479.59 2934"/><path class="cls-1" d="M1006.83,2961.9l-13.62-31.37H908.47l-13.62,31.37H859.64l73.71-161.44H968.8l73.48,161.44ZM951,2832.06l-30.52,70.33h61Z"/><path class="cls-1" d="M1396.51,2965.35q-41.09,0-70-22.61l16.9-23.73q21.84,17.52,53.06,17.51,16.42,0,26.06-5.64t9.62-15.35q0-9.2-8.92-14.3t-28.4-7.36q-33.58-3.91-48.95-15.59T1330.54,2845q0-21.18,18.2-34.59T1396,2797q34.74,0,61.5,19.37l-16,22.62a74.69,74.69,0,0,0-44.6-14.53q-15.27,0-24.89,5.63t-9.62,14.42c0,5.84,2.82,10.47,8.45,13.84s14.86,5.84,27.7,7.39q34.28,4.62,50.12,16.49t15.84,32.85q0,22.62-18.66,36.46t-49.41,13.82"/><path class="cls-1" d="M1913.66,2942.4q-23.7,23.16-62.67,23.19t-62.79-23.19q-23.84-23.16-23.84-61.22t23.84-61.24q23.8-23.18,62.79-23.16t62.67,23.16q23.71,23.17,23.72,61.24t-23.72,61.22m-62.67-5.88q23.94,0,38.73-15.32t14.79-40q0-24.69-14.79-40T1851,2825.82q-24.18,0-39,15.35t-14.79,40q0,24.69,14.79,40t39,15.32"/><polygon class="cls-1" points="2359.91 2800.46 2392.28 2800.46 2392.28 2961.9 2362.94 2961.9 2280.79 2853.72 2281.26 2901.69 2281.26 2961.9 2248.86 2961.9 2248.86 2800.46 2277.98 2800.46 2360.14 2908.86 2359.91 2862.97 2359.91 2800.46"/><rect class="cls-1" x="2771.5" y="2874.1" width="88.74" height="26.05"/><text class="cls-2" transform="translate(0 2633.48)">2<tspan class="cls-3" x="892.93" y="0">0</tspan><tspan class="cls-4" x="1754.77" y="0">2</tspan><tspan class="cls-5" x="2582.91" y="0">4</tspan></text><text class="cls-6" transform="translate(3186.03 2965.59)">13</text></svg>