<svg id="Layer_1" data-name="Layer 1" xmlns="http://www.w3.org/2000/svg" viewBox="0 0 899.43 207.58"><defs><style>.cls-1{fill:#fff;}</style></defs><path class="cls-1" d="M246,110.49c0,22.77,4.34,27.46,22.65,27.46,6.14,0,12.4.13,22.52-.24L288.87,149c-8.67.36-16.74.24-20.23.24-27.71,0-35.9-10.48-35.9-38.79V101.7C232.74,72.18,242,63,268.52,63c5.78,0,12.28-.12,21.92.24l-2.29,11.32c-4.94,0-14-.24-19.87-.24C249.6,74.35,246,78.21,246,101.7Z"/><path class="cls-1" d="M311.27,149H298.62V63.27h32.29c20.11,0,29.51,7,29.51,24.21v3.86c0,13-5.42,20.23-17,23l21,34.7H349.7l-19.27-33.49H311.27Zm36.5-60c0-12.17-4-14.46-16.86-14.46H311.27v29.64h19.64c12.89,0,16.86-2.41,16.86-14.58Z"/><path class="cls-1" d="M368,111.57v-11C368,75.92,373.66,61,404.74,61c30.48,0,36.74,13.61,36.74,39.63v11c0,24.7-5.66,39.64-36.74,39.64-30.47,0-36.74-13.62-36.74-39.64m60.23-.48v-10c0-24.69-4.33-29.15-23.49-29.15s-23.49,4.1-23.49,29.15v10c0,24.7,4.34,29.15,23.49,29.15s23.49-4.09,23.49-29.15"/><polygon class="cls-1" points="462.56 63.27 506.76 127.95 506.76 63.27 519.41 63.27 519.41 149.04 507.97 149.04 464 84.71 464 149.04 451.35 149.04 451.35 63.27 462.56 63.27"/><polygon class="cls-1" points="538.8 63.27 563.01 102.06 586.86 63.27 600.6 63.27 569.04 113.02 569.04 149.04 556.39 149.04 556.39 113.02 524.47 63.27 538.8 63.27"/><polygon class="cls-1" points="197.83 50.01 97.76 0 97.63 16.78 197.83 59.01 197.83 50.01"/><polygon class="cls-1" points="197.83 63.36 97.66 30 97.83 46.31 197.83 72.51 197.83 63.36"/><polygon class="cls-1" points="197.83 77.16 97.63 56.94 97.71 73.44 197.83 86.1 197.83 77.16"/><polygon class="cls-1" points="97.65 82.29 137.45 86.28 137.5 99.71 97.78 98.59 97.65 82.29"/><polygon class="cls-1" points="97.7 109.25 137.5 108.19 137.47 121.6 97.68 125.56 97.7 109.25"/><polygon class="cls-1" points="197.83 121.8 97.65 134.46 97.66 150.75 197.83 130.89 197.83 121.8"/><polygon class="cls-1" points="197.83 135.34 97.75 161.46 97.66 177.9 197.83 144.48 197.83 135.34"/><polygon class="cls-1" points="197.83 148.88 97.63 191.02 97.63 207.58 197.83 157.88 197.83 148.88"/><polygon class="cls-1" points="0 48.84 0 52.11 44.8 32.84 45.01 38.96 97.63 16.78 97.76 0 0 48.84"/><polygon class="cls-1" points="97.83 46.31 97.66 30 0 62.63 0 67.12 44.9 54.16 44.9 60.14 97.83 46.31"/><polygon class="cls-1" points="97.71 73.44 97.63 56.87 0 76.75 0 81.85 44.89 74.14 44.89 80.11 97.71 73.44"/><polygon class="cls-1" points="97.78 98.59 97.65 82.29 0 92.25 0 96.57 44.89 93.35 44.89 100.2 97.78 98.59"/><polygon class="cls-1" points="0 106.3 0 110.38 44.85 114.11 44.93 120.18 97.68 125.56 97.7 109.25 0 106.3"/><polygon class="cls-1" points="97.65 134.46 0 122.09 0 126.87 44.68 134.41 45.09 140.3 97.66 150.75 97.65 134.46"/><polygon class="cls-1" points="0 136.71 0 139.78 44.77 153.13 45.02 160.31 97.66 177.9 97.75 161.46 0 136.71"/><polygon class="cls-1" points="0 149.81 0 155.15 44.67 175.93 45.04 181.56 97.63 207.58 97.63 191.02 0 149.81"/><path class="cls-1" d="M648.16,97.66a42.9,42.9,0,0,1,10.35,3,18.84,18.84,0,0,1,6.66,4.82,17.21,17.21,0,0,1,3.57,6.9,35.88,35.88,0,0,1,1.07,9.22v1.78a32.34,32.34,0,0,1-1.66,11,16.63,16.63,0,0,1-5.6,7.61,25.87,25.87,0,0,1-10.35,4.46,73.77,73.77,0,0,1-15.82,1.43H624.07q-3.63,0-8.21-.06t-10.41-.18l3-15.94q9.39.24,16,.24h12.19a41.09,41.09,0,0,0,6.48-.42,10.49,10.49,0,0,0,4-1.37,4.74,4.74,0,0,0,2-2.55,13.16,13.16,0,0,0,.54-4.11,20.56,20.56,0,0,0-.3-3.81,4.81,4.81,0,0,0-1.31-2.55,7.69,7.69,0,0,0-2.74-1.67,25.41,25.41,0,0,0-4.58-1.13l-12.49-2.14a52.24,52.24,0,0,1-11.3-3,18.86,18.86,0,0,1-7-4.69,15.49,15.49,0,0,1-3.51-6.79,39.37,39.37,0,0,1-.95-9.16V86.6a28.2,28.2,0,0,1,1.67-10.11,17.47,17.47,0,0,1,5.47-7.5,26.08,26.08,0,0,1,9.93-4.7,59.74,59.74,0,0,1,14.93-1.61h12.91c2.34,0,4.88,0,7.61.06s5.85.1,9.34.18l-3,16q-9.29-.24-15.76-.24H637.22a36.18,36.18,0,0,0-6,.41,9.57,9.57,0,0,0-3.69,1.31,4.82,4.82,0,0,0-1.85,2.44,11.94,11.94,0,0,0-.53,3.81,17,17,0,0,0,.3,3.45,4.8,4.8,0,0,0,1.19,2.38A6.91,6.91,0,0,0,629.25,94a23.84,23.84,0,0,0,4.4,1.13Z"/><path class="cls-1" d="M714.07,149.77q-11.19,0-18.62-2.26a26.62,26.62,0,0,1-11.9-7,26.34,26.34,0,0,1-6.3-12,70.7,70.7,0,0,1-1.85-17.25V99a70.44,70.44,0,0,1,1.79-16.83,26.42,26.42,0,0,1,6.24-12A27.49,27.49,0,0,1,695.33,63q7.44-2.37,18.74-2.38a64.7,64.7,0,0,1,18.56,2.26,26.81,26.81,0,0,1,11.84,7,26.51,26.51,0,0,1,6.3,11.9A70,70,0,0,1,752.62,99v12.38a71,71,0,0,1-1.79,17,26.73,26.73,0,0,1-6.18,12,27,27,0,0,1-11.84,7.14q-7.44,2.37-18.74,2.37m0-16.42a40.34,40.34,0,0,0,9.1-.83,9.82,9.82,0,0,0,5.53-3.27,14.41,14.41,0,0,0,2.8-6.78,66.76,66.76,0,0,0,.77-11.36V99.33A67,67,0,0,0,731.5,88a14.06,14.06,0,0,0-2.8-6.78A10.36,10.36,0,0,0,723.17,78a38.25,38.25,0,0,0-9.1-.89,41.77,41.77,0,0,0-9.16.83,10,10,0,0,0-5.59,3.28,14.41,14.41,0,0,0-2.8,6.78,66.76,66.76,0,0,0-.77,11.36v11.78a65.86,65.86,0,0,0,.77,11.24,14.41,14.41,0,0,0,2.8,6.78,10.18,10.18,0,0,0,5.59,3.33,38.51,38.51,0,0,0,9.16.89"/><polygon class="cls-1" points="779.38 147.63 759.75 147.63 759.75 62.92 819.6 62.92 816.5 79.46 779.38 79.46 779.38 98.02 814.72 98.02 811.63 114.56 779.38 114.56 779.38 147.63"/><polygon class="cls-1" points="899.43 62.92 896.22 79.46 870.76 79.46 870.76 147.63 851.13 147.63 851.13 79.46 822.81 79.46 825.9 62.92 899.43 62.92"/></svg>